# xmcd
#
# Track frame offsets: 
#        150
#        10276
#        26383
#        52522
#        66649
#        88982
#        105259
#        117168
#        135923
#        156033
#        175268
#        187161
#        189840
#        209818
#
# Disc length: 2941 seconds
#
# Revision: 2
# Processed by: cddbd v1.5.2PL0 Copyright (c) Steve Scherf et al.
# Submitted via: ExactAudioCopyFreeDBPlugin 1.0
#
DISCID=b70b7b0e
DTITLE=Jason Elmore and Hoodoo Witch - Champagne Velvet
DYEAR=2016
DGENRE=Blues
TTITLE0=House Rockin' Boogie #7
TTITLE1=Double My Money
TTITLE2=Midnight In Memphis
TTITLE3=Maybe
TTITLE4=Shine Your Light
TTITLE5=Cross-eyed Woman
TTITLE6=Lament For Evelyn McHale
TTITLE7=Right As Rain
TTITLE8=Wish
TTITLE9=Land Of Plenty
TTITLE10=Champagne Velvet
TTITLE11=The Promise...
TTITLE12=Green to Gone
TTITLE13=Mary Jane
EXTD=
EXTT0=
EXTT1=
EXTT2=
EXTT3=
EXTT4=
EXTT5=
EXTT6=
EXTT7=
EXTT8=
EXTT9=
EXTT10=
EXTT11=
EXTT12=
EXTT13=
PLAYORDER=
